<svg xmlns="http://www.w3.org/2000/svg" width="1365" height="768" viewBox="0 0 1365 768" role="img" aria-labelledby="title desc">
  <title id="title">Retriever SDG Toolkit Pipeline</title>
  <desc id="desc">A four-stage flowchart showing source documents flowing through document bundling and chunking, artifact extraction and grounded QA generation, deduplication and judging, then conversion into retriever training and evaluation data.</desc>
  <defs>
    <marker id="arrow" viewBox="0 0 12 12" refX="10" refY="6" markerWidth="12" markerHeight="12" orient="auto">
      <path d="M2 2 L10 6 L2 10 Z" fill="#73754f"/>
    </marker>
    <filter id="paper-shadow" x="-6%" y="-10%" width="112%" height="125%">
      <feDropShadow dx="0" dy="5" stdDeviation="2.2" flood-color="#6f7049" flood-opacity="0.3"/>
    </filter>
    <style>
      .box { fill: #f1f0dd; stroke: #73754f; stroke-width: 3.2; }
      .line { fill: none; stroke: #73754f; stroke-width: 4; stroke-linecap: round; stroke-linejoin: round; marker-end: url(#arrow); }
      .icon { fill: none; stroke: #242617; stroke-width: 2.7; stroke-linecap: round; stroke-linejoin: round; }
      .ink { font-family: Inter, Arial, sans-serif; fill: #1f2118; }
      .muted { font-family: Inter, Arial, sans-serif; fill: #2f321f; }
      .stage { font-family: Inter, Arial, sans-serif; fill: #5f6241; font-size: 16px; font-weight: 760; }
      .title { font-size: 26px; font-weight: 780; }
      .subtitle { font-size: 18px; font-weight: 560; }
      .small { font-size: 16.5px; font-weight: 560; }
    </style>
  </defs>

  <rect width="1365" height="768" fill="#eceedd"/>

  <path class="line" d="M682.5 124 V154 H440 V174"/>
  <path class="line" d="M620 228 H737"/>
  <path class="line" d="M925 274 V306 H440 V322"/>
  <path class="line" d="M620 376 H737"/>
  <path class="line" d="M925 422 V458 H440 V488"/>
  <path class="line" d="M620 540 H737"/>
  <path class="line" d="M925 584 V628 H682.5 V648"/>

  <g filter="url(#paper-shadow)">
    <rect class="box" x="420" y="32" width="525" height="92" rx="15"/>
    <g class="icon" transform="translate(470 53)">
      <path d="M8 6 H25 L34 15 V47 H8 Z"/>
      <path d="M25 6 V15 H34"/>
      <path d="M14 23 H28"/>
      <path d="M14 31 H28"/>
      <path d="M14 39 H23"/>
      <path d="M3 12 H8"/>
      <path d="M3 19 H8"/>
    </g>
    <text x="520" y="72" class="ink title">Source Documents</text>
    <text x="520" y="104" class="muted small">Docs / policies / tickets / manuals</text>
  </g>

  <g filter="url(#paper-shadow)">
    <rect class="box" x="260" y="182" width="360" height="92" rx="14"/>
    <g class="icon" transform="translate(289 203)">
      <path d="M12 15 H42 V49 H12 Z"/>
      <path d="M7 10 H37"/>
      <path d="M2 5 H32"/>
      <path d="M18 25 H36"/>
      <path d="M18 34 H36"/>
      <path d="M54 17 H72 V44 H54 Z"/>
      <path d="M59 23 H68"/>
      <path d="M59 31 H68"/>
    </g>
    <text x="372" y="211" class="stage">Stage 1</text>
    <text x="372" y="239" class="ink title">Bundle Docs</text>
    <text x="372" y="263" class="muted small">single + multi-doc groups</text>
  </g>

  <g filter="url(#paper-shadow)">
    <rect class="box" x="745" y="182" width="360" height="92" rx="14"/>
    <g class="icon" transform="translate(776 205)">
      <path d="M7 7 H39 V47 H7 Z"/>
      <path d="M14 17 H32"/>
      <path d="M14 27 H32"/>
      <path d="M14 37 H25"/>
      <path d="M48 7 V47"/>
      <path d="M58 7 V47"/>
      <path d="M48 16 H58"/>
      <path d="M48 29 H58"/>
      <path d="M48 40 H58"/>
    </g>
    <text x="858" y="211" class="stage">Stage 1</text>
    <text x="858" y="239" class="ink title">Chunk Docs</text>
    <text x="858" y="263" class="muted small">stable segment IDs</text>
  </g>

  <g filter="url(#paper-shadow)">
    <rect class="box" x="260" y="330" width="360" height="92" rx="14"/>
    <g class="icon" transform="translate(289 354)">
      <path d="M8 8 H52 L36 27 V44 L24 50 V27 Z"/>
      <path d="M59 18 H72"/>
      <path d="M59 29 H72"/>
      <path d="M59 40 H68"/>
    </g>
    <text x="372" y="359" class="stage">Stage 2</text>
    <text x="372" y="387" class="ink title">Extract Artifacts</text>
    <text x="372" y="411" class="muted small">concepts / entities / links</text>
  </g>

  <g filter="url(#paper-shadow)">
    <rect class="box" x="745" y="330" width="360" height="92" rx="14"/>
    <g class="icon" transform="translate(776 354)">
      <path d="M10 9 H60 Q70 9 70 19 V35 Q70 45 60 45 H33 L18 57 V45 H10 Q2 45 2 35 V19 Q2 9 10 9 Z"/>
      <path d="M27 26 Q27 18 36 18 Q45 18 45 25 Q45 31 37 35"/>
      <path d="M37 43 H37.5"/>
    </g>
    <text x="858" y="359" class="stage">Stage 2</text>
    <text x="858" y="387" class="ink title">Generate QA</text>
    <text x="858" y="411" class="muted small">grounded multi-hop questions</text>
  </g>

  <g filter="url(#paper-shadow)">
    <rect class="box" x="260" y="496" width="360" height="88" rx="14"/>
    <g class="icon" transform="translate(289 518)">
      <circle cx="23" cy="23" r="16"/>
      <circle cx="50" cy="23" r="16"/>
      <path d="M38 12 C44 18 44 28 38 34"/>
      <path d="M12 49 H62"/>
    </g>
    <text x="372" y="523" class="stage">Stage 3</text>
    <text x="372" y="551" class="ink title">Deduplicate</text>
    <text x="372" y="575" class="muted small">near-duplicate queries</text>
  </g>

  <g filter="url(#paper-shadow)">
    <rect class="box" x="745" y="496" width="360" height="88" rx="14"/>
    <g class="icon" transform="translate(776 516)">
      <circle cx="28" cy="28" r="16"/>
      <path d="M28 4 V14"/>
      <path d="M28 42 V56"/>
      <path d="M4 28 H14"/>
      <path d="M42 28 H56"/>
      <path d="M11 11 L18 18"/>
      <path d="M45 11 L38 18"/>
      <path d="M11 45 L18 38"/>
      <path d="M45 45 L38 38"/>
      <path d="M18 55 L28 47 L38 55"/>
    </g>
    <text x="858" y="523" class="stage">Stage 3</text>
    <text x="858" y="551" class="ink title">Judge Quality</text>
    <text x="858" y="575" class="muted small">relevance / support / clarity</text>
  </g>

  <g filter="url(#paper-shadow)">
    <rect class="box" x="430" y="648" width="505" height="86" rx="14"/>
    <g class="icon" transform="translate(462 671)">
      <ellipse cx="31" cy="10" rx="25" ry="8"/>
      <path d="M6 10 V42 C6 46 17 51 31 51 C45 51 56 46 56 42 V10"/>
      <path d="M6 26 C6 30 17 35 31 35 C45 35 56 30 56 26"/>
      <circle cx="67" cy="42" r="13"/>
      <path d="M61 42 L66 47 L74 36"/>
    </g>
    <text x="552" y="676" class="stage">Stage 4</text>
    <text x="552" y="704" class="ink title">Convert</text>
    <text x="552" y="728" class="muted small">train/val, BEIR qrels, AutoModel data</text>
  </g>
</svg>
